PathFileType	4	(X/Y/Z)	E:\Marcel_BSc\Ayumi_22_01_2025\22-01-2025\sumo_dl_1.trc
DataRate	CameraRate	NumFrames	NumMarkers	Units	OrigDataRate	OrigDataStartFrame	OrigNumFrames
200.0	200.0	8	47	mm	200.0	1	2190	
Frame#	Time	FHD			LBHD			RBHD			RBAR			LBAR			RSACR			LSACR			USACR			C7			CLAV			T10			RSHO			LSHO			LTHI1			LTHI3			LTHI2			LTIB1			LTIB2			LTIB3			LMMAL			LLMAL			LHEE			LMT1			LMT5			LMT3			RTHI1			RTHI2			RTHI3			RTIB1			RTIB3			RTIB2			RLMAL			RMMAL			RHEE			RMT5			RMT1			RMT3			LDUPA			LMUPA			LUUPA			LRAD			RUL			RRAD			RUFIN			RMUPA			RDUPA			RUUPA			
		X1	Y1	Z1	X2	Y2	Z2	X3	Y3	Z3	X4	Y4	Z4	X5	Y5	Z5	X6	Y6	Z6	X7	Y7	Z7	X8	Y8	Z8	X9	Y9	Z9	X10	Y10	Z10	X11	Y11	Z11	X12	Y12	Z12	X13	Y13	Z13	X14	Y14	Z14	X15	Y15	Z15	X16	Y16	Z16	X17	Y17	Z17	X18	Y18	Z18	X19	Y19	Z19	X20	Y20	Z20	X21	Y21	Z21	X22	Y22	Z22	X23	Y23	Z23	X24	Y24	Z24	X25	Y25	Z25	X26	Y26	Z26	X27	Y27	Z27	X28	Y28	Z28	X29	Y29	Z29	X30	Y30	Z30	X31	Y31	Z31	X32	Y32	Z32	X33	Y33	Z33	X34	Y34	Z34	X35	Y35	Z35	X36	Y36	Z36	X37	Y37	Z37	X38	Y38	Z38	X39	Y39	Z39	X40	Y40	Z40	X41	Y41	Z41	X42	Y42	Z42	X43	Y43	Z43	X44	Y44	Z44	X45	Y45	Z45	X46	Y46	Z46	X47	Y47	Z47	
1	-0.005	155.33907	1540.1013	-992.12201	171.34898	1522.3192	-931.98999	190.87207	1506.9629	-1063.0076	234.94528	236.45578	-2091.8857	251.89072	250.02786	128.88303	359.67331	872.53143	-1030.6672	359.94565	873.24963	-957.17291	354.63531	885.29962	-994.26605	330.40262	1316.1376	-988.08069	191.16737	1254.9453	-998.59143	349.81326	1040.3457	-992.98639	268.67245	1329.6808	-1129.2239	259.53256	1319.9644	-851.7923	310.22794	575.36249	-746.86572	322.49173	511.16724	-740.80359	280.38168	523.59009	-717.19434	318.45859	243.04045	-594.64972	355.76163	223.57693	-623.5542	330.90552	179.99416	-582.22021	271.49115	65.759033	-592.24347	329.63721	72.815025	-548.02563	334.70987	30.015697	-595.31122	185.6328	44.549675	-468.77521	252.73344	28.029402	-423.58429	206.5208	40.952423	-441.13312	309.9527	576.27417	-1235.8628	279.25568	526.21362	-1267.1921	322.45984	512.00281	-1243.5026	322.05249	276.44293	-1371.5782	334.68829	212.32011	-1382.681	360.04672	258.94693	-1342.819	335.54523	72.498161	-1426.7811	263.88205	67.883331	-1396.4396	339.73712	28.543098	-1380.9382	253.7419	26.133724	-1552.9811	194.94771	35.659496	-1517.9515	217.67143	33.25457	-1540.5635	344.1275	1241.3461	-669.47974	317.0903	1282.9873	-670.7627	324.68628	1287.4846	-732.03363	285.70331	1280.3893	-338.12427	333.25616	1289.4229	-1629.3665	275.69681	1313.4547	-1630.7822	278.17947	1317.1785	-1703.7983	341.50082	1286.1271	-1233.7532	345.88419	1277.7927	-1295.097	356.54892	1239.26	-1226.8785
2	0	155.38361	1540.0518	-992.22046	171.37306	1522.3141	-932.07355	190.92546	1506.9224	-1063.0759	235.00305	236.26135	-2091.9788	251.87764	250.03415	128.88542	359.6929	872.52344	-1030.6719	359.96539	873.22571	-957.18268	354.67062	885.27399	-994.27667	330.47397	1316.1472	-988.08069	191.22768	1254.9595	-998.58887	349.8587	1040.3417	-992.97083	268.75415	1329.6776	-1129.2288	259.56342	1319.9946	-851.81024	310.25903	575.35516	-746.88159	322.49271	511.12061	-740.83264	280.3952	523.58136	-717.19086	318.45975	243.0385	-594.65692	355.78207	223.57272	-623.56232	330.73456	179.84503	-582.38812	271.46103	65.768196	-592.24475	329.63116	72.821259	-548.02185	334.70502	30.006151	-595.30701	185.62938	44.553452	-468.77789	252.71022	27.966959	-423.57779	206.51648	40.939404	-441.14716	309.98749	576.27057	-1235.8579	279.26593	526.20844	-1267.173	322.49081	511.99692	-1243.489	322.10367	276.42899	-1371.5652	334.75705	212.33759	-1382.6276	360.08569	258.94101	-1342.7526	335.52429	72.525024	-1426.7854	263.90491	67.89122	-1396.4469	339.7457	28.547819	-1380.9426	253.72777	26.133419	-1552.9833	194.94867	35.65794	-1517.9503	217.66476	33.258327	-1540.5656	344.17435	1241.4644	-669.45233	317.12238	1283.084	-670.76117	324.70972	1287.5825	-732.02203	285.72845	1280.6161	-338.1192	333.23514	1289.3223	-1629.3716	275.68155	1313.3611	-1630.783	278.15543	1317.0857	-1703.7998	341.56235	1286.0916	-1233.7534	345.9411	1277.7139	-1295.1132	356.61078	1239.1575	-1226.871
3	0.005	155.45216	1539.9828	-992.32703	171.41866	1522.3566	-932.11517	190.97574	1506.8789	-1063.1194	234.91446	236.47598	-2091.9104	251.87064	250.02567	128.87982	359.71689	872.50732	-1030.6792	359.99405	873.21259	-957.18927	354.7243	885.2254	-994.30603	330.53555	1316.1564	-988.08435	191.28938	1254.9777	-998.59497	349.92883	1040.3165	-992.95447	268.836	1329.6641	-1129.2496	259.59048	1320.0491	-851.80762	310.28195	575.34467	-746.90656	322.51767	511.10666	-740.8869	280.4198	523.56848	-717.21655	318.47345	243.04283	-594.68085	355.79288	223.56703	-623.55164	330.74991	179.79201	-582.4093	271.48138	65.756531	-592.23175	329.64246	72.835373	-548.0224	334.71106	30.019682	-595.30499	185.63681	44.556629	-468.78006	252.68839	27.946171	-423.58664	206.51787	40.94178	-441.14673	310.58853	575.50427	-1236.137	279.29333	526.1958	-1267.1714	322.52716	512.01245	-1243.4624	322.16074	276.42792	-1371.5203	334.78061	212.31479	-1382.6116	360.09476	258.92044	-1342.725	335.53323	72.505669	-1426.7867	263.89648	67.899757	-1396.4581	339.74695	28.557329	-1380.9476	253.73303	26.138153	-1552.9783	194.93501	35.651051	-1517.9476	217.67639	33.2528	-1540.5665	344.22742	1241.5867	-669.43213	317.142	1283.1989	-670.75806	325.16818	1288.192	-731.70758	285.76678	1280.8536	-338.11871	333.22662	1289.2222	-1629.4001	275.6669	1313.2842	-1630.7827	278.13885	1316.9973	-1703.806	341.61856	1286.0397	-1233.7786	346.00647	1277.6431	-1295.1306	356.64908	1239.09	-1226.8837
4	0.01	155.49219	1539.9192	-992.40271	171.45021	1522.329	-932.18042	191.01389	1506.8435	-1063.1663	234.97015	236.25812	-2091.9907	251.8546	250.01498	128.87976	359.74182	872.49414	-1030.6733	360.01758	873.18378	-957.1991	354.76813	885.1795	-994.33142	330.61478	1316.1412	-988.08441	191.35667	1254.9807	-998.59192	349.99725	1040.3	-992.94189	268.90442	1329.671	-1129.259	259.63705	1320.0613	-851.81421	310.29083	575.32794	-746.92493	322.51904	511.07089	-740.93842	280.45377	523.56366	-717.22418	318.45901	243.02321	-594.67816	355.7662	223.56555	-623.5528	330.72931	179.77043	-582.43433	271.47815	65.768349	-592.24097	329.64642	72.836227	-548.00848	334.71225	30.019165	-595.29736	185.62787	44.550583	-468.7832	252.75258	28.057821	-423.58871	206.52597	40.963371	-441.12714	310.02124	576.26282	-1235.8296	279.33774	526.14453	-1267.1691	322.19406	512.43677	-1243.4072	322.15964	276.39349	-1371.5143	334.78845	212.30962	-1382.5955	360.13809	258.87387	-1342.6722	335.55051	72.508324	-1426.8003	263.9054	67.897072	-1396.4497	339.73834	28.559002	-1380.9487	253.7374	26.137295	-1552.9821	194.95932	35.645748	-1517.9453	217.66287	33.240341	-1540.5687	344.28168	1241.719	-669.40015	317.16718	1283.2859	-670.74011	325.19839	1288.2615	-731.72083	285.78156	1281.0857	-338.11969	333.20749	1289.157	-1629.4095	275.63544	1313.2051	-1630.7854	278.09198	1316.916	-1703.7926	341.68085	1285.9978	-1233.7975	346.05045	1277.5968	-1295.1288	356.68719	1239.0396	-1226.8774
5	0.015	155.48428	1539.9459	-992.42596	171.47432	1522.3518	-932.2309	191.04205	1506.8129	-1063.2122	234.90683	236.46719	-2091.9045	251.85463	250.00613	128.87685	359.7724	872.47058	-1030.7045	360.04913	873.14984	-957.21344	354.80472	885.13312	-994.34674	330.68497	1316.1434	-988.08789	191.41594	1254.9915	-998.59985	350.0708	1040.2499	-992.93896	268.97794	1329.6455	-1129.2734	259.689	1320.0748	-851.83624	310.30789	575.29761	-746.94586	322.51547	511.08771	-740.93665	280.47513	523.53937	-717.25732	318.48743	243.0367	-594.68884	355.76501	223.5378	-623.56592	330.74954	179.79135	-582.42493	271.45822	65.770523	-592.28223	329.65164	72.819443	-548.01782	334.73087	29.999489	-595.29608	185.64653	44.526859	-468.77301	252.76184	27.90575	-423.61035	206.50858	40.933308	-441.1395	310.08099	576.22974	-1235.8282	279.35855	526.12561	-1267.1614	322.5972	511.96033	-1243.4729	322.22421	276.40131	-1371.4594	334.86002	212.2561	-1382.5785	360.15854	258.85513	-1342.6179	335.54959	72.488922	-1426.808	263.8967	67.886803	-1396.4532	339.7561	28.551907	-1380.9552	253.748	26.135633	-1552.9781	194.96654	35.633312	-1517.9709	217.65857	33.218868	-1540.5688	344.32449	1241.8358	-669.36017	317.16962	1283.375	-670.74402	325.23538	1288.3546	-731.69562	285.79553	1281.3007	-338.12692	333.18759	1289.0846	-1629.4441	275.64566	1313.1248	-1630.7699	278.0481	1316.8398	-1703.8086	341.74228	1285.9625	-1233.813	346.10202	1277.5388	-1295.1515	356.7254	1239.0193	-1226.8884
6	0.02	155.50197	1539.9839	-992.42493	171.51372	1522.3688	-932.25378	191.06062	1506.792	-1063.2301	234.91571	236.4642	-2091.8774	251.85162	249.98387	128.87057	359.79764	872.42322	-1030.7134	360.07471	873.11865	-957.22742	354.83456	885.09778	-994.35992	330.78262	1316.1345	-988.09967	191.47891	1255.0083	-998.60883	350.12845	1040.209	-992.92505	269.04727	1329.6315	-1129.2887	259.74591	1320.0907	-851.85321	310.33401	575.27594	-746.96826	322.52628	511.04279	-740.9649	280.49786	523.51758	-717.27185	318.453	242.99416	-594.71503	355.7785	223.52972	-623.59106	330.7829	179.79407	-582.41187	271.48981	65.762062	-592.26532	329.6868	72.80304	-548.00726	334.71539	30.006535	-595.30115	185.66321	44.521667	-468.7648	252.83516	27.929432	-423.63052	206.51299	40.956741	-441.1062	310.11603	576.18518	-1235.8284	279.37042	526.13379	-1267.1533	322.29987	512.37048	-1243.3837	322.57465	276.5737	-1371.123	334.90741	212.20694	-1382.5858	360.18082	258.83148	-1342.5494	335.55969	72.471146	-1426.8231	263.91583	67.881714	-1396.4462	339.77359	28.547607	-1380.9469	253.76117	26.138926	-1552.9813	194.98152	35.61866	-1517.9857	217.67551	33.234375	-1540.5746	344.36078	1241.9679	-669.32782	317.1821	1283.4597	-670.7359	325.27893	1288.4175	-731.69696	285.7977	1281.5164	-338.13821	333.16461	1289.0074	-1629.4771	275.60715	1313.0764	-1630.7592	278.00854	1316.7703	-1703.8225	342.36691	1285.6063	-1233.7083	346.13895	1277.506	-1295.178	356.78928	1239.0068	-1226.8899
7	0.025	155.49617	1540.0375	-992.40869	171.55025	1522.3872	-932.27588	191.10458	1506.7599	-1063.2493	234.9718	236.26959	-2091.9604	251.83368	249.98598	128.86674	359.84238	872.3869	-1030.7118	360.11057	873.0816	-957.23291	354.89365	885.04645	-994.38135	330.8454	1316.136	-988.10638	191.54526	1255.0195	-998.60522	350.22385	1040.1847	-992.92035	269.1264	1329.609	-1129.3107	259.79871	1320.1123	-851.85992	310.36072	575.23773	-746.98505	322.52686	511.03842	-740.98071	280.5155	523.50269	-717.27234	318.43149	242.96872	-594.72394	355.76254	223.51299	-623.60168	330.77704	179.76855	-582.435	271.48221	65.746834	-592.27307	329.66943	72.777206	-548.00287	334.75565	29.970079	-595.29773	185.67059	44.49091	-468.77267	252.88116	27.889914	-423.65182	206.49854	40.93153	-441.1113	310.16815	576.15363	-1235.8207	279.39676	526.06561	-1267.1598	322.57672	512.06989	-1243.4141	322.2612	275.75204	-1371.6536	334.93069	212.19586	-1382.5623	360.20337	258.77896	-1342.5095	335.60266	72.456902	-1426.8439	263.91907	67.846619	-1396.4534	339.77417	28.516388	-1380.9618	253.77617	26.141029	-1552.9915	194.99763	35.608841	-1518.004	217.68996	33.235092	-1540.5719	344.39938	1242.0546	-669.29498	317.2225	1283.545	-670.72009	325.30441	1288.4855	-731.68201	285.80975	1281.726	-338.13919	333.13989	1288.9403	-1629.4929	275.59213	1313.0264	-1630.7222	277.96219	1316.7074	-1703.8325	341.84631	1285.9274	-1233.8541	346.189	1277.4686	-1295.2019	356.83679	1238.9869	-1226.9039
8	0.03	155.48235	1540.1105	-992.37354	171.58421	1522.3668	-932.28876	191.12105	1506.7383	-1063.2733	234.91858	236.43121	-2091.8818	251.84274	249.97295	128.86339	359.85236	872.36725	-1030.7197	360.1286	873.05225	-957.24103	354.91876	885.01642	-994.38861	330.92209	1316.1544	-988.12842	191.6158	1255.0449	-998.61578	350.2677	1040.139	-992.92883	269.19287	1329.5947	-1129.3168	259.86707	1320.1187	-851.89111	310.40128	575.27441	-746.96387	322.52173	511.01239	-741.01996	280.51706	523.48645	-717.28278	318.44644	242.97302	-594.74658	355.7775	223.48131	-623.62384	330.76175	179.78363	-582.44366	271.45972	65.735031	-592.30902	329.681	72.776634	-548.00537	334.74887	29.969437	-595.29626	185.69458	44.472301	-468.75568	252.97096	27.953142	-423.66302	206.47758	40.96442	-441.09491	310.20316	576.11206	-1235.8408	279.42004	526.07471	-1267.1229	322.67798	511.95038	-1243.454	322.61981	276.41159	-1371.124	334.99933	212.18208	-1382.5435	360.21014	258.77084	-1342.4557	335.63354	72.425896	-1426.8483	263.93414	67.809677	-1396.4711	339.78693	28.531437	-1380.9598	253.8158	26.129534	-1552.9875	195.00807	35.6161	-1518.0249	217.68903	33.24511	-1540.5853	344.47397	1242.1351	-669.26367	317.25833	1283.6432	-670.68408	325.35355	1288.5453	-731.66534	285.83594	1281.9215	-338.14633	333.1127	1288.9188	-1629.5094	275.54236	1312.9969	-1630.7191	277.89374	1316.6724	-1703.8328	341.90302	1285.899	-1233.8745	346.21979	1277.4733	-1295.214	356.8916	1238.9684	-1226.9299
